<?xml version="1.0" standalone="no"?>
<!DOCTYPE svg PUBLIC "-//W3C//DTD SVG 20010904//EN"
 "http://www.w3.org/TR/2001/REC-SVG-20010904/DTD/svg10.dtd">
<svg version="1.0" xmlns="http://www.w3.org/2000/svg"
 width="479.000000pt" height="521.000000pt" viewBox="0 0 479.000000 521.000000"
 preserveAspectRatio="xMidYMid meet">

<g transform="translate(0.000000,521.000000) scale(0.100000,-0.100000)"
fill="#000000" stroke="none">
<path d="M2130 4839 c-254 -26 -572 -125 -809 -252 -401 -215 -733 -547 -951
-952 -93 -173 -182 -425 -221 -628 -41 -214 -51 -520 -24 -729 67 -506 301
-978 664 -1336 280 -275 611 -467 998 -576 211 -60 351 -79 563 -78 330 3 492
27 752 112 128 42 381 154 442 196 12 7 66 44 121 81 469 312 800 784 940
1338 46 183 55 274 55 575 0 285 -3 313 -61 550 -149 607 -577 1148 -1150
1452 -243 129 -513 213 -789 243 -145 16 -392 18 -530 4z m575 -159 c284 -46
557 -149 806 -306 303 -191 582 -502 749 -833 99 -197 155 -373 189 -592 91
-581 -44 -1130 -393 -1598 -80 -108 -326 -361 -351 -361 -9 0 -21 14 -27 33
-6 17 -31 70 -55 117 -24 46 -43 87 -43 90 1 15 244 256 286 283 33 22 56 47
72 78 l23 46 -22 63 c-20 59 -21 68 -9 169 21 182 -13 415 -76 529 -119 215
-221 306 -432 386 -127 49 -218 61 -328 46 -116 -15 -261 -53 -330 -86 -106
-50 -331 -291 -379 -407 -7 -18 -19 -65 -25 -103 -7 -38 -20 -99 -31 -135 -32
-110 -22 -193 31 -269 30 -44 30 -66 -1 -107 -35 -46 -37 -90 -8 -150 24 -49
57 -70 124 -80 40 -5 50 -12 75 -48 65 -95 239 -222 349 -255 25 -8 25 -8 -7
-9 -18 -1 -49 6 -69 14 -62 26 -80 21 -117 -37 -79 -125 -109 -219 -126 -396
-5 -58 -12 -108 -15 -111 -12 -12 -26 30 -71 219 -43 179 -94 365 -188 690
-25 86 -44 131 -60 146 -12 11 -63 30 -112 43 -120 31 -210 58 -233 71 -43 23
-34 78 17 104 15 8 67 46 115 84 53 42 108 77 137 87 28 9 52 21 56 26 3 5 -9
35 -27 66 -31 53 -31 57 -14 69 10 8 35 16 54 20 75 12 80 21 56 98 -9 29 -15
62 -13 72 3 19 9 23 131 78 48 22 77 41 75 48 -2 7 -46 41 -98 75 -52 35 -96
69 -98 76 -4 19 13 30 88 57 77 27 227 104 254 130 19 18 18 19 -15 39 -19 12
-78 39 -132 62 -53 23 -100 45 -103 50 -2 5 52 64 122 132 70 68 124 128 121
134 -7 11 -70 24 -220 44 -48 7 -91 17 -96 23 -13 15 74 186 153 302 27 40 33
64 16 64 -5 0 -72 -23 -147 -51 -192 -71 -187 -70 -201 -17 -14 55 -30 176
-38 296 -5 69 -10 92 -21 92 -39 0 -188 -105 -293 -207 -30 -29 -58 -53 -62
-53 -4 0 -42 44 -85 98 -96 121 -172 202 -189 202 -7 0 -15 -15 -18 -32 -18
-123 -39 -232 -55 -283 -23 -74 -41 -79 -138 -37 -121 53 -233 78 -233 52 0
-6 12 -39 26 -73 38 -89 53 -144 56 -207 l3 -55 -60 -6 c-33 -4 -129 -12 -213
-19 -96 -8 -152 -17 -152 -24 1 -6 28 -40 61 -76 83 -90 147 -173 164 -214 14
-33 13 -35 -13 -63 -15 -15 -78 -63 -140 -106 -62 -43 -112 -84 -112 -91 0 -7
30 -23 67 -36 119 -41 243 -125 243 -165 0 -7 -32 -48 -71 -91 -116 -130 -118
-137 -42 -163 70 -24 148 -55 161 -64 17 -13 15 -48 -10 -140 -22 -78 -22 -80
-2 -94 14 -10 43 -14 109 -12 l90 3 10 -69 c12 -82 20 -86 95 -54 l51 22 42
-30 c23 -17 66 -42 95 -57 49 -25 53 -29 50 -58 -3 -31 -6 -32 -183 -98 -99
-37 -188 -71 -197 -74 -26 -12 -41 -52 -123 -336 -73 -254 -81 -278 -88 -269
-2 2 -37 45 -78 94 -175 209 -252 326 -344 517 -84 175 -163 437 -185 612 -15
120 -12 494 4 601 35 225 106 448 194 615 194 364 423 620 745 831 292 192
701 320 1062 332 96 3 305 -9 390 -23z m-1200 -1543 c21 -12 54 -42 72 -66 31
-40 34 -49 31 -105 l-3 -61 -175 -7 c-198 -7 -200 -6 -200 66 1 140 158 239
275 173z m512 -97 c75 -34 100 -67 86 -113 -8 -30 -12 -32 -53 -31 -50 1 -237
21 -287 30 -32 6 -33 8 -33 53 0 63 20 89 73 94 76 7 151 -4 214 -33z m-812
-797 c10 -26 31 -74 47 -105 15 -32 23 -58 18 -58 -13 0 -63 104 -84 172 -18
61 -5 54 19 -9z m1884 -190 c16 -55 13 -138 -5 -181 -32 -77 -115 -137 -204
-148 -141 -16 -277 84 -288 210 -5 63 -10 60 123 76 172 21 235 44 281 106
l28 36 27 -30 c15 -17 33 -48 38 -69z m237 62 c9 -14 44 -38 78 -55 59 -29
145 -45 281 -52 l50 -3 3 -43 c6 -82 -75 -189 -160 -213 -72 -20 -167 -16
-215 9 -43 22 -100 86 -121 135 -25 59 -11 160 30 220 24 33 33 34 54 2z
m-1220 -630 c52 -109 114 -263 114 -281 0 -16 -115 -141 -144 -156 -12 -5 9
21 47 59 98 100 99 94 -59 420 -35 73 -64 136 -64 140 1 16 65 -95 106 -182z
m-579 112 c-3 -24 -9 -102 -13 -175 -4 -73 -12 -135 -17 -139 -11 -6 -2 314
10 342 12 33 26 14 20 -28z m407 -137 c27 -213 35 -314 25 -324 -5 -5 -11 -7
-14 -4 -3 3 -13 88 -20 189 -8 101 -19 211 -25 245 -13 77 -12 87 5 49 7 -16
20 -86 29 -155z m-540 -394 c38 -36 44 -57 22 -75 -12 -10 -16 -6 -25 22 -7
19 -21 43 -31 52 -11 10 -20 22 -20 27 0 16 19 7 54 -26z"/>
</g>
</svg>
